<svg xmlns="http://www.w3.org/2000/svg" viewBox="0 0 64 64">
  <rect width="64" height="64" rx="14" fill="#fff"/>
  <!-- tapa de la libreta -->
  <rect x="10" y="10" width="44" height="50" rx="4" fill="none" stroke="#111" stroke-width="3"/>
  <!-- lomo izquierdo -->
  <line x1="18" y1="10" x2="18" y2="60" stroke="#111" stroke-width="2.5"/>
  <!-- espirales -->
  <path d="M14 18 Q10 18 10 22 Q10 26 14 26 Q18 26 18 22" fill="none" stroke="#111" stroke-width="2" stroke-linecap="round"/>
  <path d="M14 33 Q10 33 10 37 Q10 41 14 41 Q18 41 18 37" fill="none" stroke="#111" stroke-width="2" stroke-linecap="round"/>
  <path d="M14 48 Q10 48 10 52 Q10 56 14 56 Q18 56 18 52" fill="none" stroke="#111" stroke-width="2" stroke-linecap="round"/>
  <!-- líneas de texto -->
  <line x1="25" y1="24" x2="47" y2="24" stroke="#111" stroke-width="2.2" stroke-linecap="round"/>
  <line x1="25" y1="33" x2="47" y2="33" stroke="#111" stroke-width="2.2" stroke-linecap="round"/>
  <line x1="25" y1="42" x2="47" y2="42" stroke="#111" stroke-width="2.2" stroke-linecap="round"/>
  <line x1="25" y1="51" x2="38" y2="51" stroke="#111" stroke-width="2.2" stroke-linecap="round"/>
</svg>
